<?xml version="1.0" encoding="UTF-8"?>
<svg xmlns="http://www.w3.org/2000/svg" viewBox="400 400 11500 3200">
  <defs>
    <style>
      @import url('https://fonts.googleapis.com/css2?family=Montserrat:wght@800&amp;display=swap');
      .st0, .st1 { fill-rule: evenodd; }
      .st0 { fill: #4f515b; }
      .st1 { fill: #e9001a; }
      .st2 {
        font-family: 'Montserrat', FuturaPT-Heavy, 'Futura PT', sans-serif;
        font-size: 2400px;
        font-weight: 800;
        letter-spacing: -20px;
        fill: #4f515b;
      }
    </style>
  </defs>
  <path class="st1" d="M1239.86,673.03c-69.75,33.18-136.35,71.83-199.36,115.31,506.54,877.45,1013.14,1754.84,1519.74,2632.23h265.91c-528.73-915.84-1057.51-1831.7-1586.3-2747.54h0Z"/>
  <path class="st1" d="M1772.57,535.92c-84.9,5.09-167.88,17.52-248.2,36.71,548.1,949.31,1096.21,1898.63,1644.32,2847.94h269.38c-555.17-961.51-1110.35-1923.08-1665.49-2884.65h0Z"/>
  <path class="st0" d="M3305.59,1978.35c.05-706.8-507.38-1295.07-1177.84-1420.42l1096.63,1899.37c52.6-149.85,81.26-311.07,81.21-478.95h0Z"/>
  <path class="st0" d="M1593.32,3398.76L496.69,1499.39c-52.64,149.89-81.26,311.07-81.26,478.96,0,706.83,507.43,1295.14,1177.89,1420.41h0Z"/>
  <path class="st1" d="M655.24,1180.82c431.11,746.68,862.18,1493.35,1293.26,2240.04,269.24-.29,184.37-.29,269.24-.29-468.8-811.93-937.62-1623.97-1406.42-2435.91-57.45,60.64-109.72,126.28-156.08,196.16h0Z"/>
  <text class="st2" transform="translate(3850 2800)"><tspan x="0" y="0">QALT</tspan></text>
</svg>
